inDegrees=no
num_controls=7
num_derivatives=13
num_iterations=106
num_multipliers=7
num_parameters=0
num_slacks=7
num_states=26
objective=0.516885
objective_accelerations=0.039804
objective_balance=0.002298
objective_effort=0.044288
objective_height=0.418842
objective_ligament=0.011653
solver_duration=1401.422826
status=Solve_Succeeded
success=true
DataType=double
version=3
OpenSimVersion=4.5
endheader
time	/jointset/ground_pelvis/pelvis_tilt/value	/jointset/ground_pelvis/pelvis_tx/value	/jointset/ground_pelvis/pelvis_ty/value	/jointset/hip_l/hip_flexion_l/value	/jointset/hip_l/hip_adduction_l/value	/jointset/hip_l/hip_rotation_l/value	/jointset/back/lumbar_extension/value	/jointset/patellofemoral_l/patellar_flexion_l/value	/jointset/knee_l/knee_flexion_l/value	/jointset/knee_l/knee_adduction_l/value	/jointset/knee_l/knee_rotation_l/value	/jointset/ankle_l/ankle_angle_l/value	/jointset/subtalar_l/subtalar_angle_l/value	/jointset/ground_pelvis/pelvis_tilt/speed	/jointset/ground_pelvis/pelvis_tx/speed	/jointset/ground_pelvis/pelvis_ty/speed	/jointset/hip_l/hip_flexion_l/speed	/jointset/hip_l/hip_adduction_l/speed	/jointset/hip_l/hip_rotation_l/speed	/jointset/back/lumbar_extension/speed	/jointset/patellofemoral_l/patellar_flexion_l/speed	/jointset/knee_l/knee_flexion_l/speed	/jointset/knee_l/knee_adduction_l/speed	/jointset/knee_l/knee_rotation_l/speed	/jointset/ankle_l/ankle_angle_l/speed	/jointset/subtalar_l/subtalar_angle_l/speed	/forceset/tau_hip_flexion_l	/forceset/tau_hip_adduction_l	/forceset/tau_hip_rotation_l	/forceset/tau_knee_flexion_l	/forceset/tau_ankle_angle_l	/forceset/tau_subtalar_angle_l	/forceset/tau_lumbar_extension	lambda_cid13_p0	lambda_cid13_p1	lambda_cid13_p2	lambda_cid13_p3	lambda_cid13_p4	lambda_cid13_p5	lambda_cid14_p0	/jointset/ground_pelvis/pelvis_tilt/accel	/jointset/ground_pelvis/pelvis_tx/accel	/jointset/ground_pelvis/pelvis_ty/accel	/jointset/hip_l/hip_flexion_l/accel	/jointset/hip_l/hip_adduction_l/accel	/jointset/hip_l/hip_rotation_l/accel	/jointset/back/lumbar_extension/accel	/jointset/patellofemoral_l/patellar_flexion_l/accel	/jointset/knee_l/knee_flexion_l/accel	/jointset/knee_l/knee_adduction_l/accel	/jointset/knee_l/knee_rotation_l/accel	/jointset/ankle_l/ankle_angle_l/accel	/jointset/subtalar_l/subtalar_angle_l/accel	gamma_cid13_p0	gamma_cid13_p1	gamma_cid13_p2	gamma_cid13_p3	gamma_cid13_p4	gamma_cid13_p5	gamma_cid14_p0
1	-0.1643594030689149	-0.09516111150386097	0.725791677658026	1.265584553435466	-0.3264909887224485	-0.008172077337102507	-0.9599044882811474	1.156810480337781	1.156810480337767	-0.07505401589615124	-0.1745142383114657	0.1340732740915903	0.01048367825918131	0.09664841319344472	0.02359863432695703	0.06727276393233003	-0.2842643129785484	0.00123746715438319	-0.06723841846151871	-0.004336164592782281	-0.1738868112273805	-0.1738868112273732	0.001694138407413592	-0.0001565601159313626	0.004848761762732155	0.00419660422282101	-0.4038383887804913	0.02382798785835585	-0.005517773529884155	-0.2923529364244458	0.1147940553075976	0.03630823567392571	0.4389949912907414	-13.62599785189106	-12.95300742007195	1.119769032219438	4.580484721948035	-787.9079664274873	-63.64477633606528	-1.858389319102243	1.091739772337013	0.2034046680271171	1.268480501324592	-4.741974042419824	-0.00162631520072496	-1.384976912383257	0.3291764369535871	-4.124713570742268	-4.124713570742267	-0.2084714545880053	0.003840996706417634	-0.7383017433717791	-0.2478154754128711	-1.085980575672635e-08	-1.465721184105364e-08	4.066296659561205e-08	5.189547236189924e-09	-2.26904247237964e-08	4.674027278283775e-08	-1.118621016826998e-08
1.01	-0.1633386094267807	-0.09491492072884077	0.7265276258823592	1.262505577804597	-0.3264780572467708	-0.008913901635703301	-0.9599310716748816	1.154865770538803	1.15486577053877	-0.07504627547530182	-0.1745149548862001	0.1340849836966487	0.01051403509365613	0.1075297835128762	0.02564531884726817	0.0799078096529158	-0.3315355693452406	0.001358936330631246	-0.08112249559615643	-0.001004738316923215	-0.2150455274160989	-0.2150455274161182	-0.0001387904263845784	1.563346244783498e-05	-0.002509289997479159	0.001885318246093752	-0.4027615162056439	0.02393690620662148	-0.005553202300415545	-0.2922130244311594	0.1149388353826154	0.03637090048134597	0.4383322064797956	-13.53788078746986	-13.00254028815756	1.135534654631648	4.418558006354869	-787.3556054927026	-63.72284719298695	-1.899987411548392	1.089254381092252	0.2061716857822406	1.259650514037206	-4.720417043082279	0.0205478150967496	-1.389544476481331	0.3314921105806635	-4.110004587282224	-4.11000458728616	-0.1696218633100563	0.02427920410870885	-0.7349255490080691	-0.2212044752867981	-1.488347597369866e-08	-2.168223547488564e-08	5.310621823915451e-08	8.051208237582578e-09	-2.696299118918115e-08	5.355643005750323e-08	-1.438069967208272e-08
1.02	-0.1622084183376033	-0.09464808884026767	0.7273896513452203	1.258953746488176	-0.3264636082231292	-0.009794450978116711	-0.9599250675292506	1.152509762789054	1.152509762789043	-0.075056647995873	-0.1745138753920359	0.1340230390527726	0.01052159520506609	0.1185279026061651	0.02772685703753553	0.09248821163811262	-0.3788354500834568	0.001540976749248199	-0.09498342722989105	0.002181343466090795	-0.2561464013786518	-0.2561464013786975	-0.001928449881565938	0.000202653669028118	-0.009882088024184887	-0.0003627403900011254	-0.4016846436308273	0.02404582455490129	-0.005588631070972601	-0.2920731124378704	0.1150836154576451	0.03643356528878808	0.4376694216688141	-13.46026606146493	-13.05017788224085	1.150933769876334	4.291396524003775	-786.946336683788	-63.79375716717471	-1.950968766785743	1.115089527108396	0.2103754020184338	1.257551754246812	-4.747698916724608	0.01048793327303126	-1.380347812202636	0.3001075383839262	-4.113145125509147	-4.113145125509134	-0.1998175788646743	0.006806322346606068	-0.7412509966705574	-0.235170007286383	-1.829036793851725e-08	-3.006070907020954e-08	6.497855132080118e-08	8.958162322762353e-09	-2.915278282744203e-08	5.950375195699982e-08	-1.781806122340128e-08
1.03	-0.1609686768621554	-0.09436009183708345	0.7283770134708759	1.254929986598937	-0.3264470401860982	-0.01081335046479001	-0.9598854301515524	1.149743402340418	1.149743402340383	-0.07508473154741116	-0.1745108815062629	0.1338874856063296	0.01050705526243746	0.1293376158867462	0.02989610323541095	0.104955710877594	-0.4257994553056474	0.001781735276947854	-0.1087823408348604	0.005972950129145649	-0.2970792524620239	-0.2970792524620681	-0.003681402969324273	0.0003928534344635134	-0.01721150487894425	-0.002528785626044962	-0.4018419276182604	0.02431874891798909	-0.005636796889406204	-0.2912843122470772	0.1150258726187712	0.0366378812812524	0.4385307431979684	-13.46028970110929	-13.15574447534923	1.186995035147418	3.817015402426922	-787.0887968936355	-63.87304251655148	-2.01164085352668	1.051493636375733	0.2237351487756235	1.237067339150875	-4.653193338529224	0.03223217683946236	-1.37756300680806	0.4527099357088485	-4.076385444126662	-4.076385444126434	-0.1620171722893329	0.02465402675433427	-0.726224705451607	-0.2048551220348773	-2.169096624770162e-08	-3.845299337942622e-08	7.684505870283668e-08	9.84517041900117e-09	-3.13213216613445e-08	6.544220818940286e-08	-2.125790106091889e-08
